<svg xmlns="http://www.w3.org/2000/svg" viewBox="0 0 512 512"><title>Grooming</title><g id="Grooming"><path d="M374,68.17H314.59v12h34.73V97H314.59v12h34.73v18H314.59v12h34.73v18H314.59v12h34.73v18H314.59v12h34.73v18H314.59v12h34.73v18H314.59v12h34.73v18H314.59v12h34.73v18H314.59v12h34.73v18H314.59v12h34.73v18H314.59v12h34.73v18H314.59v12h34.73v15.44H314.59v12H374A28.09,28.09,0,0,0,402,408.37V96.23A28.09,28.09,0,0,0,374,68.17ZM390,408.37A16.09,16.09,0,0,1,374,424.43H361.32V80.17H374A16.09,16.09,0,0,1,390,96.23Z" id="id_101" style="fill: rgb(255, 255, 255);"></path><path d="M229.7,334.67a37.93,37.93,0,0,0-34.25,21.72L184,311.05l-2-9.56a23.51,23.51,0,0,0,7.82-35.25,104.31,104.31,0,0,0,24.84-46.59L236,113.74,210.3,58.62l-39.19,190-39.2-190-25.66,55.12,21.24,105.7.05.21a104.31,104.31,0,0,0,24.93,46.7,23.51,23.51,0,0,0,7.74,35l-3.11,15.09-9.43,39.33a37.87,37.87,0,0,0-71.85,16.73v35.5a37.88,37.88,0,1,0,75.75,0V391l16.76-69.89h.06l.42-2,2.36-9.85,1.12,4.46,1.53,7.4.33-.06,17.67,70v17a37.88,37.88,0,1,0,75.75,0v-35.5A37.92,37.92,0,0,0,229.7,334.67Zm-90.13,73.38a25.88,25.88,0,1,1-51.75,0v-35.5a25.88,25.88,0,1,1,51.75,0ZM214.73,96.56l8.7,18.68L203,217A92.27,92.27,0,0,1,181.5,257.6ZM139.24,217,118.79,115.24l8.69-18.68,33.23,161A92.35,92.35,0,0,1,139.24,217Zm35.23,74.68a11.5,11.5,0,0,1-6.74,0,11.6,11.6,0,0,1-8.07-11,11.38,11.38,0,0,1,1.34-5.38,11.59,11.59,0,0,1,5.7-5.24,11.42,11.42,0,0,1,4.5-.92,11.55,11.55,0,0,1,11.54,11.54,11.55,11.55,0,0,1-8.27,11.06Zm81.1,116.4a25.88,25.88,0,1,1-51.75,0v-35.5a25.88,25.88,0,1,1,51.75,0Z" id="id_102" style="fill: rgb(255, 255, 255);"></path></g></svg>