<svg version="1.1" id="Layer_1" xmlns="http://www.w3.org/2000/svg" xmlns:xlink="http://www.w3.org/1999/xlink" x="0px" y="0px" viewBox="0 0 371.0118 274.1406" enable-background="new 0 0 371.0118 274.1406" xml:space="preserve">
<g>
	<path d="M76.1506,160.0339c1.0742-0.3682,2.1934-0.5547,3.3242-0.5547c3.046,0,5.8566,1.3418,7.7724,3.5488
		c-0.01-0.0662-0.0131-0.1318-0.0248-0.198c-0.3722-2.1024-1.5379-3.8607-3.1302-5.0356c0.0764-0.0483,0.1421-0.1086,0.2235-0.1509
		c0.4434-0.2305,0.9209-0.3447,1.3994-0.3447c0.46,0,0.9199,0.1064,1.3506,0.3193l8.7314,4.3203
		c1.1973,0.5918,1.8628,1.877,1.6563,3.1973l-0.6363,4.0667c-0.6746,0.0394-1.2639,0.5298-1.3906,1.2253
		c-0.1309,0.7205,0.2783,1.4128,0.9382,1.6656l-0.6082,3.8871c-0.2065,1.3193-1.2329,2.3398-2.5542,2.5381h0.0005l-9.6343,1.4473
		c-0.5319,0.0787-1.0528,0.0079-1.5331-0.1755l-3.4328,1.1692c0.0765,0.0859,0.1467,0.1758,0.2286,0.2583
		c1.1514,1.1572,2.668,1.7842,4.2627,1.7842c0.3047,0,0.6123-0.0234,0.9204-0.0693l9.6338-1.4473c0,0,0,0,0.0005,0
		c2.6235-0.3945,4.6621-2.4209,5.0718-5.042l0.5924-3.7864l23.4666,4.2592c0.0424,0.3591,0.1144,0.7183,0.253,1.0707
		c0.8685,2.2072,3.3618,3.2925,5.569,2.4241c1.0084-0.3967,1.7668-1.1409,2.2275-2.0337l118.3474,21.4797v4.3889c0,2.2001,1.8,4,4,4
		h11.2877v16.928H149.3667l14.0913,10h19.5113l-20.481,28.9668H131.071v10h239.9407v-10h-25.3055V36.8564h10.7896v-20h-84.522
		L240.509,0l-9.4443,17.6289l6.8752,3.6833l-3.8486,6.8806c-2.2722,4.0625-0.8075,9.2454,3.2549,11.5176
		c0.6924,0.3872,1.4185,0.6577,2.156,0.8335l15.797,147.9967h-2.1229c-2.2,0-4,1.7999-4,4v4.2678l-117.9959-21.416
		c-0.0455-0.1842-0.0836-0.3693-0.155-0.5507c-0.8684-2.2072-3.3618-3.2925-5.569-2.4241
		c-0.8337,0.3281-1.5059,0.8888-1.9746,1.5774l-23.7053-4.3025l0.6406-4.094c0.4102-2.6211-0.9121-5.1729-3.29-6.3496
		l-8.7314-4.3203c-1.7427-0.8613-3.7334-0.8428-5.4604,0.0508c-0.709,0.3674-1.3162,0.8616-1.8143,1.4435
		c-1.0112-0.2307-2.0845-0.2677-3.1706-0.0763l-13.5552,2.3994l-0.1802-0.1937c0.9547,1.5338,1.8679,3.069,2.7227,4.6195
		L76.1506,160.0339z M295.3593,234.1719v-58.3575h2.569l2.186-4.6h11.3328l2.186,4.6h2.5682v58.3575H295.3593z M295.3593,166.4775
		v-3.7517h20.8421v3.7517H295.3593z M295.3593,157.989v-3.7515h20.8421v3.7515H295.3593z M295.3593,149.5006v-3.7516h20.8421v3.7516
		H295.3593z M295.3593,141.0122v-3.7516h20.8421v3.7516H295.3593z M295.3593,132.5238v-3.7516h20.8421v3.7516H295.3593z
		 M295.3593,124.0354v-87.179h20.8421v87.179H295.3593z M292.7066,36.8564v87.179h-9.0316v4.7368h9.0316v3.7516h-9.0316v4.7368
		h9.0316v3.7516h-9.0316v4.7368h9.0316v3.7516h-9.0316v4.7369h9.0316v3.7515h-9.0316v4.7368h9.0316v3.7517h-9.0316v4.7368h4.2771
		l2.186,4.6h2.5685v58.3575h-18.2426V36.8564H292.7066z M192.8701,235.1738h71.594v28.9668h-92.0749L192.8701,235.1738z
		 M274.4641,264.1406v-19.9688h61.2422v19.9688H274.4641z M335.7062,234.1719h-16.8523v-58.3575h2.5693l2.186-4.6h2.8868v-4.7368
		h-7.6422v-3.7517h7.6422v-4.7368h-7.6422v-3.7515h7.6422v-4.7369h-7.6422v-3.7516h7.6422v-4.7368h-7.6422v-3.7516h7.6422v-4.7368
		h-7.6422v-3.7516h7.6422v-4.7368h-7.6422v-87.179h16.8523V234.1719z M346.2013,26.7827c0,3.0347-2.4601,5.4948-5.4948,5.4948
		s-5.4948-2.4601-5.4948-5.4948s2.4601-5.4946,5.4948-5.4946S346.2013,23.748,346.2013,26.7827z M269.4645,21.2881
		c3.0347,0,5.4948,2.46,5.4948,5.4946s-2.4601,5.4948-5.4948,5.4948s-5.4948-2.4601-5.4948-5.4948
		S266.4299,21.2881,269.4645,21.2881z M238.4131,31.3339c0.8514-1.5221,2.7755-2.0659,4.2977-1.2145
		c1.5221,0.8513,2.0659,2.7754,1.2145,4.2976c-0.4261,0.7618-1.1211,1.2784-1.8998,1.4978l-0.1996-1.8699
		c-0.0884-0.8232-0.8218-1.4189-1.6509-1.332c-0.8237,0.0879-1.4204,0.8271-1.3325,1.6504l0.0754,0.7061
		C237.9676,34.0938,237.7144,32.583,238.4131,31.3339z M242.5364,40.7021c2.5743-0.3307,4.9705-1.8208,6.3274-4.2466l3.9985-7.1489
		l11.6017,6.2153v153.0187h-6.1475L242.5364,40.7021z" id="id_101" style="fill: rgb(255, 255, 255);"></path>
	<path d="M112.3118,235.1738l-8.8155-6.2561l-48.1719-4.6133c-6.0518-0.5784-11.0958-4.8374-12.7772-10.5784H33.058
		c-3.8904,0-7.0735,3.1831-7.0735,7.0735l0,0c0,3.8904,3.183,7.0735,7.0735,7.0735h1.9032
		c-6.8962,3.7657-11.5851,11.0859-11.5851,19.4814v26.7861h10v-26.7861c0-6.7168,5.4644-12.1807,12.1807-12.1807H112.3118z" id="id_102" style="fill: rgb(250, 254, 255);"></path>
	<path d="M269.4645,24.5723c-1.2208,0-2.2105,0.9896-2.2105,2.2104c0,1.2209,0.9897,2.2106,2.2105,2.2106
		s2.2105-0.9896,2.2105-2.2106C271.675,25.5619,270.6854,24.5723,269.4645,24.5723z" id="id_103" style="fill: rgb(255, 255, 255);"></path>
	<path d="M340.7065,24.5723c-1.2208,0-2.2105,0.9896-2.2105,2.2104c0,1.2209,0.9897,2.2106,2.2105,2.2106
		s2.2105-0.9896,2.2105-2.2106C342.9171,25.5619,341.9274,24.5723,340.7065,24.5723z" id="id_104" style="fill: rgb(255, 255, 255);"></path>
	<ellipse transform="matrix(0.9515 -0.3076 0.3076 0.9515 -32.2645 12.1817)" cx="22.506" cy="108.4287" rx="22.5" ry="22.4999" id="id_105" style="stroke: rgb(255, 255, 255); fill: rgb(250, 254, 255);"></ellipse>
	<path d="M55.5432,222.0154l48.7832,4.6709l44.2686,31.417c2.1963,1.5576,4.7217,2.3066,7.2236,2.3066
		c3.9131,0,7.7676-1.832,10.2051-5.2666c3.9951-5.6299,2.6699-13.4326-2.96-17.4287l-46.9902-33.3477
		c-1.7832-1.2646-3.8662-2.04-6.043-2.249l-33.5225-3.21c-0.0273-1.5303-0.1797-3.1709-0.4932-4.9473
		c-1.0201-3.9883-2.0586-7.6381-3.158-11.0444l-8.7922,2.9946c-1.0703,0.3652-2.1875,0.5508-3.3193,0.5508
		c-2.4307,0-4.791-0.8633-6.6465-2.4307L25.3,159.7156c-2.1025-1.7744-3.3877-4.2617-3.6191-7.0039
		c-0.2314-2.7412,0.6191-5.4092,2.3936-7.5107c1.9609-2.3232,4.8301-3.6563,7.873-3.6563c2.4268,0,4.7852,0.8633,6.6416,2.4316
		l24.3496,20.5576l1.8076-0.6157c-3.6199-6.4985-8.0727-12.697-13.9208-19.7593c-9.9453-11.8672-23.1602-11.7637-30.3682-6.7188
		c-7.207,5.043-6.4463,17.5088-0.2021,25.7744c7.5713,12.0859,19.2988,29.0898,23.3047,45.9658
		c0.29,0.917,0.5811,1.7627,0.873,2.5518C45.3791,217.1345,49.8185,221.4675,55.5432,222.0154z" id="id_106" style="fill: rgb(255, 255, 255);"></path>
	<path d="M62.4484,167.1306l-25.3428-21.3975c-3.377-2.8516-8.4238-2.4258-11.2734,0.9512
		c-2.8506,3.376-2.4248,8.4238,0.9512,11.2734l28.7998,24.3164c1.4648,1.2373,3.2998,1.8877,5.1621,1.8877
		c0.8643,0,1.7363-0.1406,2.5781-0.4277l18.7266-6.3789c4.1826-1.4238,6.418-5.9697,4.9932-10.1514
		c-1.4238-4.1836-5.9707-6.4219-10.1514-4.9932L62.4484,167.1306z" id="id_107" style="fill: rgb(255, 255, 255);"></path>
</g>
</svg>