<svg xmlns="http://www.w3.org/2000/svg" xml:space="preserve" width="1.99999in" height="1.99999in" version="1.1" style="shape-rendering:geometricPrecision; text-rendering:geometricPrecision; image-rendering:optimizeQuality; fill-rule:evenodd; clip-rule:evenodd" viewBox="0 0 2000 2000" xmlns:xlink="http://www.w3.org/1999/xlink">
 <defs>
  <style type="text/css">
   
    .fil0 {fill:black}
   
  </style>
 </defs>
 <g id="Layer_x0020_1">
  <metadata id="CorelCorpID_0Corel-Layer"></metadata>
  <path class="fil0" d="M417 527l-79 0c-47,0 -84,-37 -84,-84l0 -212c0,-47 37,-84 84,-84l79 0c47,0 84,37 84,84l0 43 998 0 0 -43c0,-47 37,-84 84,-84l79 0c47,0 84,37 84,84l0 212c0,47 -37,84 -84,84l-79 0c-47,0 -84,-37 -84,-84l0 -43 -998 0 0 43c0,47 -37,84 -84,84zm808 1326c-34,0 -63,-21 -74,-53l-87 -262c-33,10 -69,10 -102,0l-88 262c-21,66 -112,72 -143,10 -9,-18 -11,-39 -4,-59l115 -345c-11,-56 -8,-180 -5,-281 0,-30 1,-57 1,-77l-387 -377c-51,-49 -16,-134 54,-134 20,0 39,8 53,21l344 335c64,-53 157,-54 222,-1l317 -333c48,-48 134,-13 132,58 -1,20 -9,40 -24,54l-362 376c1,21 1,48 2,78 3,101 6,225 -5,281l115 345c17,50 -21,102 -74,102zm-149 -361c9,0 17,6 19,14l94 281c16,48 87,24 72,-23l-117 -350c-1,-4 -1,-8 0,-11 15,-66 3,-265 3,-364 0,-5 2,-10 6,-14l368 -382c38,-38 -19,-89 -52,-56l-330 347c-27,29 -40,-41 -126,-41 -87,0 -98,69 -126,42l-356 -348c-35,-33 -89,20 -52,55l393 383c4,4 6,9 6,14 0,99 -12,298 4,364 1,3 1,7 0,11l-117 350c-16,47 56,71 72,23l93 -281c4,-11 17,-17 28,-12 61,28 106,-2 118,-2zm-63 -666c-83,0 -151,-68 -151,-152 0,-83 68,-151 151,-151 83,0 151,68 151,151 0,84 -68,152 -151,152zm0 -263c-61,0 -111,50 -111,111 0,62 50,112 111,112 61,0 111,-50 111,-112 0,-61 -50,-111 -111,-111zm-512 -249l0 46 998 0 0 -46 -998 0zm1082 -127c-24,0 -44,20 -44,44l0 212c0,25 20,44 44,44l79 0c25,0 44,-19 44,-44l0 -212c0,-24 -19,-44 -44,-44l-79 0zm-1245 0c-25,0 -44,20 -44,44l0 212c0,25 19,44 44,44l79 0c24,0 44,-19 44,-44l0 -212c0,-24 -20,-44 -44,-44l-79 0z" id="id_129" style="fill: rgb(255, 255, 255);"></path>
 </g>
</svg>