<svg width="64" height="64" viewBox="0 0 64 64" fill="none" xmlns="http://www.w3.org/2000/svg">
<path d="M58.9999 38.1C57.2199 34.93 58.9999 30.75 55.6099 27.94L48.2099 19.24C42.6299 12.67 41.0699 10.83 40.4599 10.32V10.25C37.9999 8.83999 29.4599 4.41999 23.1199 6.45999C21.8681 6.85874 20.7179 7.52498 19.7492 8.41254C18.7805 9.30009 18.0164 10.3877 17.5099 11.6C17.0531 12.6349 16.9347 13.7877 17.1717 14.8939C17.4088 16.0001 17.9891 17.0031 18.8299 17.76C19.995 18.8037 21.4433 19.4786 22.9919 19.6993C24.5404 19.92 26.1197 19.6767 27.5299 19C30.7299 16.93 35.4299 18.6 36.9099 22C37.3099 22.61 39.0799 27.85 38.3299 31.35C38.2035 32.1286 37.8322 32.8467 37.2699 33.4C35.4776 32.9338 33.5966 32.9277 31.8013 33.3822C30.006 33.8367 28.3545 34.7371 26.9999 36C24.555 34.7452 21.8573 34.0614 19.1099 34C16.6777 33.9057 14.2517 34.3084 11.9804 35.1836C9.70903 36.0587 7.64006 37.388 5.89994 39.09C4.1101 40.8905 3.10547 43.3262 3.10547 45.865C3.10547 48.4038 4.1101 50.8394 5.89994 52.64C8.11991 55.1148 11.0484 56.8457 14.2869 57.5972C17.5255 58.3487 20.917 58.0843 23.9999 56.84C26.6588 57.6623 29.4269 58.077 32.2099 58.07C41.5599 58.07 51.3199 53.54 59.5199 45.16C61.7499 43.26 61.1099 40 58.9999 38.1ZM58.0999 43.69C48.5699 53.45 36.9999 57.74 26.6099 55.47C27.3444 54.9998 28.04 54.4715 28.6899 53.89C28.8872 53.7134 29.0064 53.4658 29.0214 53.2015C29.0364 52.9372 28.946 52.6777 28.7699 52.48C28.6824 52.3808 28.576 52.3 28.457 52.2423C28.338 52.1845 28.2087 52.151 28.0766 52.1435C27.9446 52.1361 27.8123 52.1549 27.6876 52.1989C27.5629 52.243 27.4481 52.3113 27.3499 52.4C24.545 54.8959 20.8652 56.1785 17.1165 55.9667C13.3678 55.7549 9.85588 54.066 7.34994 51.27C5.92284 49.8412 5.12124 47.9044 5.12124 45.885C5.12124 43.8656 5.92284 41.9288 7.34994 40.5C8.89916 38.9985 10.7361 37.8258 12.7501 37.0525C14.7642 36.2792 16.9139 35.9212 19.0699 36C21.889 36.0454 24.6471 36.828 27.0699 38.27L29.9999 40.71C30.1909 40.8943 30.4473 40.9952 30.7126 40.9905C30.978 40.9859 31.2306 40.8759 31.4149 40.685C31.5993 40.494 31.7002 40.2377 31.6955 39.9723C31.6908 39.7069 31.5809 39.4543 31.3899 39.27C30.6361 38.4405 29.7907 37.6991 28.8699 37.06C30.0144 36.1373 31.3675 35.5091 32.8109 35.2302C34.2543 34.9512 35.7441 35.0302 37.1499 35.46L39.6699 36.68C39.8985 36.7995 40.1644 36.8262 40.4121 36.7543C40.6598 36.6824 40.8702 36.5177 40.9992 36.2943C41.1283 36.071 41.1661 35.8065 41.1047 35.556C41.0434 35.3055 40.8876 35.0884 40.6699 34.95C40.2405 34.6614 39.793 34.4008 39.3299 34.17C39.9413 33.2775 40.3194 32.2461 40.4299 31.17C40.7318 27.6377 40.108 24.0877 38.6199 20.87C36.6199 16.52 30.6199 14.63 26.6199 17.21C25.5846 17.6485 24.4469 17.7872 23.3366 17.6104C22.2262 17.4336 21.1879 16.9483 20.3399 16.21C19.7929 15.7367 19.4143 15.0987 19.261 14.3918C19.1077 13.6849 19.188 12.9473 19.4899 12.29C19.8826 11.3432 20.4785 10.4943 21.2353 9.80312C21.9921 9.11194 22.8915 8.5954 23.8699 8.28999C29.3499 6.52999 36.9999 10.43 39.4499 11.82L54.1499 29.3C57.1499 31.75 55.1499 36.3 57.4199 39.3C58.7099 40.55 59.6699 42.4 58.1099 43.69H58.0999Z" fill="#ffffff" id="id_130"></path>
</svg>