<svg width="64" height="64" viewBox="0 0 64 64" fill="none" xmlns="http://www.w3.org/2000/svg">
<path d="M35.46 15.61H33.18V11.31H35.53C35.7952 11.31 36.0496 11.2046 36.2371 11.0171C36.4246 10.8296 36.53 10.5752 36.53 10.31V4C36.53 3.73478 36.4246 3.48043 36.2371 3.29289C36.0496 3.10536 35.7952 3 35.53 3H7.93C7.66478 3 7.41043 3.10536 7.22289 3.29289C7.03536 3.48043 6.93 3.73478 6.93 4V10.31C6.93 10.5752 7.03536 10.8296 7.22289 11.0171C7.41043 11.2046 7.66478 11.31 7.93 11.31H10.28V15.61H8C6.67392 15.61 5.40215 16.1368 4.46447 17.0745C3.52678 18.0121 3 19.2839 3 20.61V56C3 57.3261 3.52678 58.5979 4.46447 59.5355C5.40215 60.4732 6.67392 61 8 61H35.46C36.7861 61 38.0579 60.4732 38.9955 59.5355C39.9332 58.5979 40.46 57.3261 40.46 56V20.61C40.46 19.2839 39.9332 18.0121 38.9955 17.0745C38.0579 16.1368 36.7861 15.61 35.46 15.61ZM8.93 5H34.53V9.31H8.93V5ZM12.28 11.31H31.18V15.61H12.28V11.31ZM8 17.61H35.46C36.2556 17.61 37.0187 17.9261 37.5813 18.4887C38.1439 19.0513 38.46 19.8144 38.46 20.61V27.2H5V20.61C5 19.8144 5.31607 19.0513 5.87868 18.4887C6.44129 17.9261 7.20435 17.61 8 17.61V17.61ZM38.46 47.41H5V29.2H38.46V47.41ZM35.46 59H8C7.20435 59 6.44129 58.6839 5.87868 58.1213C5.31607 57.5587 5 56.7956 5 56V49.41H38.46V56C38.46 56.7956 38.1439 57.5587 37.5813 58.1213C37.0187 58.6839 36.2556 59 35.46 59V59Z" fill="#ffffff" id="id_101"></path>
<path d="M18.4199 44.23C18.6062 44.4147 18.8576 44.5189 19.1199 44.52C19.2516 44.5208 19.382 44.4955 19.5039 44.4458C19.6257 44.396 19.7365 44.3227 19.8299 44.23L24.9999 39C25.1404 38.8605 25.2363 38.6824 25.2754 38.4884C25.3146 38.2944 25.2953 38.0931 25.2199 37.91C25.1434 37.7292 25.0153 37.575 24.8517 37.4666C24.6881 37.3581 24.4962 37.3002 24.2999 37.3H21.4999L24.9999 33.8C25.0937 33.707 25.1681 33.5964 25.2188 33.4746C25.2696 33.3527 25.2957 33.222 25.2957 33.09C25.2957 32.958 25.2696 32.8273 25.2188 32.7054C25.1681 32.5836 25.0937 32.473 24.9999 32.38C24.8126 32.1937 24.5591 32.0892 24.2949 32.0892C24.0308 32.0892 23.7773 32.1937 23.5899 32.38L18.4199 37.6C18.2795 37.7395 18.1836 37.9176 18.1445 38.1116C18.1053 38.3056 18.1246 38.5069 18.1999 38.69C18.275 38.8726 18.4024 39.0289 18.5661 39.1393C18.7298 39.2496 18.9225 39.309 19.1199 39.31H21.9199L18.4199 42.81C18.3262 42.903 18.2518 43.0136 18.2011 43.1354C18.1503 43.2573 18.1241 43.388 18.1241 43.52C18.1241 43.652 18.1503 43.7827 18.2011 43.9046C18.2518 44.0264 18.3262 44.137 18.4199 44.23Z" fill="#ffffff" id="id_102"></path>
<path d="M59.81 53.73C59.374 53.2647 58.8476 52.8934 58.2629 52.6389C57.6782 52.3844 57.0477 52.2521 56.41 52.25H51.86L53.72 48C54.1882 46.9391 54.2157 45.7358 53.7965 44.6546C53.3774 43.5735 52.5459 42.7031 51.485 42.235C50.4242 41.7669 49.2208 41.7394 48.1397 42.1585C47.0585 42.5777 46.1882 43.4091 45.72 44.47L41.15 54.86C40.6856 55.9226 40.6605 57.1259 41.0802 58.2069C41.4999 59.288 42.3303 60.1591 43.39 60.63C43.9448 60.8738 44.5441 60.9997 45.15 61H56.63C57.7484 61.0067 58.8264 60.5824 59.6402 59.8152C60.4539 59.048 60.9409 57.9968 61 56.88C61.0316 56.3011 60.942 55.7219 60.7371 55.1796C60.5322 54.6372 60.2165 54.1435 59.81 53.73ZM50 56.56V59H48.82C49 58.81 50 56.56 50 56.56ZM47.55 45.31C47.7353 44.8865 48.0404 44.5264 48.4278 44.2741C48.8151 44.0218 49.2678 43.8883 49.73 43.89C50.0748 43.8852 50.4164 43.9569 50.73 44.1C51.3036 44.3541 51.753 44.8251 51.9798 45.41C52.2066 45.9948 52.1923 46.6457 51.94 47.22V47.22L50 51.49L45.66 49.58L47.55 45.31ZM42.94 57.48C42.7006 56.9004 42.7006 56.2496 42.94 55.67L44.82 51.41L49.16 53.32L47.28 57.58C47.0911 58.0095 46.779 58.3732 46.3832 58.6251C45.9873 58.877 45.5257 59.0057 45.0566 58.995C44.5875 58.9843 44.1322 58.8346 43.7483 58.5649C43.3644 58.2952 43.0692 57.9176 42.9 57.48H42.94ZM58.31 58.3C57.8643 58.7458 57.2605 58.9974 56.63 59H52V54.25H56.45C56.8241 54.2454 57.1951 54.3186 57.5393 54.4649C57.8836 54.6112 58.1938 54.8275 58.45 55.1C58.6474 55.3263 58.7977 55.5896 58.8921 55.8747C58.9865 56.1597 59.0232 56.4607 59 56.76C58.9632 57.3397 58.7181 57.8866 58.31 58.3V58.3Z" fill="#ffffff" id="id_103"></path>
</svg>